<svg xmlns="http://www.w3.org/2000/svg" width="800" height="1100" viewBox="0 0 800 1100" fill="none">
  <defs>
    <linearGradient id="bg" x1="92" y1="74" x2="705" y2="1038" gradientUnits="userSpaceOnUse">
      <stop stop-color="#0c1c4b"/>
      <stop offset="1" stop-color="#284a9c"/>
    </linearGradient>
    <radialGradient id="glow" cx="0" cy="0" r="1" gradientUnits="userSpaceOnUse" gradientTransform="translate(642 201) rotate(128.58) scale(402 295)">
      <stop stop-color="#f18b2a" stop-opacity=".38"/>
      <stop offset="1" stop-color="#f18b2a" stop-opacity="0"/>
    </radialGradient>
    <linearGradient id="glass" x1="122" y1="708" x2="675" y2="973" gradientUnits="userSpaceOnUse">
      <stop stop-color="white" stop-opacity=".18"/>
      <stop offset="1" stop-color="white" stop-opacity=".04"/>
    </linearGradient>
  </defs>
  <rect width="800" height="1100" rx="44" fill="url(#bg)"/>
  <rect x="44" y="44" width="712" height="1012" rx="38" stroke="rgba(255,255,255,.18)" stroke-opacity=".25"/>
  <circle cx="640" cy="188" r="202" fill="url(#glow)"/>
  <circle cx="132" cy="960" r="180" fill="#f18b2a" fill-opacity=".14"/>
  <path d="M100 248C221 184 313 161 425 156C543 151 627 177 712 252" stroke="white" stroke-opacity=".08" stroke-width="72" stroke-linecap="round"/>
  <path d="M88 328C216 264 320 235 453 236C549 237 634 261 711 317" stroke="white" stroke-opacity=".06" stroke-width="44" stroke-linecap="round"/>
  <rect x="92" y="676" width="616" height="286" rx="30" fill="url(#glass)" stroke="rgba(255,255,255,.18)" stroke-opacity=".28"/>
  <rect x="122" y="146" width="162" height="44" rx="22" fill="white" fill-opacity=".12"/>
  <text x="143" y="175" fill="white" fill-opacity=".88" font-family="Inter, Arial, sans-serif" font-size="22" font-weight="700" letter-spacing="1.8">EMAE</text>
  <text x="122" y="758" fill="white" font-family="Montserrat, Arial, sans-serif" font-size="58" font-weight="800">Chauffage & climatisation</text>
  <text x="122" y="823" fill="#E7EDFF" font-family="Inter, Arial, sans-serif" font-size="27" font-weight="500">PAC • clim • chauffage • entretien</text>
  <rect x="122" y="866" width="194" height="52" rx="26" fill="#f18b2a" fill-opacity=".94"/>
  <text x="155" y="900" fill="white" font-family="Inter, Arial, sans-serif" font-size="23" font-weight="700">Intervention</text>
  <path d="M520 790H640" stroke="white" stroke-opacity=".75" stroke-width="10" stroke-linecap="round"/>
  <path d="M520 842H676" stroke="white" stroke-opacity=".36" stroke-width="10" stroke-linecap="round"/>
  <path d="M520 894H616" stroke="white" stroke-opacity=".24" stroke-width="10" stroke-linecap="round"/>
</svg>